<?xml version="1.0" standalone="no"?>
<!DOCTYPE svg PUBLIC "-//W3C//DTD SVG 20010904//EN"
 "http://www.w3.org/TR/2001/REC-SVG-20010904/DTD/svg10.dtd">
<svg version="1.0" xmlns="http://www.w3.org/2000/svg"
 width="759.000000pt" height="421.000000pt" viewBox="0 0 759.000000 421.000000"
 preserveAspectRatio="xMidYMid meet">

<g transform="translate(0.000000,421.000000) scale(0.100000,-0.100000)"
fill="#000000" stroke="none">
<path d="M0 2105 l0 -2105 3795 0 3795 0 0 2105 0 2105 -3795 0 -3795 0 0
-2105z m3145 1034 l200 -296 5 296 5 296 125 0 125 0 3 -517 2 -518 -130 0
-130 0 -197 296 -198 296 -3 -296 -2 -296 -130 0 -130 0 0 520 0 521 128 -3
127 -3 200 -296z m1579 -214 c113 -283 206 -517 206 -520 0 -3 -62 -5 -138 -5
l-138 0 -36 103 -35 102 -191 3 -190 2 -30 -82 c-16 -46 -33 -93 -36 -105 -7
-22 -11 -23 -147 -23 l-139 0 19 48 c109 275 385 961 392 974 8 16 26 18 133
18 l124 0 206 -515z m671 143 c72 -202 132 -368 135 -368 3 0 64 165 136 368
l130 367 137 2 c75 1 137 -2 137 -5 0 -4 -92 -237 -204 -517 l-204 -510 -130
-3 -130 -3 -206 516 c-113 283 -206 517 -206 520 0 3 62 4 138 3 l137 -3 130
-367z m-3832 67 c15 -8 37 -21 50 -27 12 -7 185 -107 384 -222 310 -179 364
-214 378 -242 14 -29 15 -95 13 -518 l-3 -486 -25 -24 c-14 -14 -205 -129
-425 -256 -315 -181 -407 -230 -435 -230 -27 0 -85 29 -245 121 -116 67 -295
171 -400 231 -104 60 -201 120 -215 134 l-25 24 -3 495 -3 495 33 34 c25 26
634 387 798 473 33 17 89 16 123 -2z m5147 -899 c47 -3 111 -10 143 -17 l57
-12 0 -119 c0 -107 -2 -119 -16 -114 -38 15 -224 28 -348 24 -149 -3 -169 -11
-164 -62 4 -43 49 -65 230 -115 164 -45 207 -64 256 -112 57 -56 67 -84 67
-189 0 -79 -4 -102 -22 -136 -42 -78 -124 -133 -240 -160 -106 -24 -422 -17
-515 12 -16 5 -18 20 -18 120 0 85 3 114 13 114 6 0 46 -5 87 -11 41 -5 148
-10 236 -10 181 -1 224 10 224 56 0 44 -60 74 -242 120 -224 57 -318 147 -318
306 0 186 115 288 350 308 41 4 89 6 105 4 17 -1 68 -4 115 -7z m-3462 -6
c227 -32 347 -263 231 -445 l-30 -48 34 -36 c57 -59 72 -97 72 -181 0 -62 -5
-84 -27 -126 -34 -65 -104 -127 -177 -156 -54 -21 -69 -22 -356 -23 l-300 0
-3 513 -2 512 247 0 c137 0 276 -5 311 -10z m1349 -500 c111 -278 203 -508
203 -512 0 -5 -60 -8 -134 -8 l-135 0 -19 53 c-10 28 -27 76 -38 105 l-18 52
-189 -2 -189 -3 -37 -100 -36 -100 -134 -3 c-131 -3 -133 -2 -128 18 3 12 95
244 203 516 l198 495 125 -3 124 -3 204 -505z m1058 481 c83 -33 164 -115 195
-196 30 -81 25 -187 -12 -260 -24 -46 -116 -145 -135 -145 -4 0 -14 -4 -21 -9
-10 -6 20 -54 122 -191 75 -100 136 -186 136 -191 0 -6 -62 -8 -147 -7 l-148
3 -175 235 -175 234 -5 -234 -5 -235 -122 -3 -123 -3 0 517 0 516 278 -4 c261
-4 280 -5 337 -27z m-2874 -1188 c13 -35 7 -127 -10 -147 -8 -9 -29 -16 -47
-16 l-34 0 0 95 0 95 40 0 c35 0 42 -4 51 -27z m219 17 c0 -5 -18 -10 -40 -10
-38 0 -40 -2 -40 -30 0 -28 2 -30 40 -30 22 0 40 -4 40 -10 0 -5 -18 -10 -40
-10 -39 0 -40 -1 -40 -35 0 -34 1 -35 40 -35 22 0 40 -4 40 -10 0 -5 -22 -10
-50 -10 l-50 0 0 95 0 95 50 0 c28 0 50 -4 50 -10z m188 -2 c15 -15 16 -48 2
-48 -5 0 -10 6 -10 14 0 7 -7 19 -15 26 -12 10 -18 10 -30 0 -24 -20 -17 -38
25 -65 31 -20 40 -31 40 -53 0 -35 -16 -52 -52 -52 -26 0 -48 23 -48 49 0 19
18 12 25 -10 5 -14 14 -19 28 -17 35 5 28 43 -13 70 -37 25 -49 60 -30 84 15
17 61 19 78 2z m152 -83 c0 -57 -4 -95 -10 -95 -6 0 -10 38 -10 95 0 57 4 95
10 95 6 0 10 -38 10 -95z m210 69 c12 -31 12 -34 2 -34 -5 0 -14 11 -20 25
-24 51 -62 19 -62 -52 0 -66 9 -84 39 -81 20 2 27 9 29 31 3 22 -1 27 -17 27
-12 0 -21 5 -21 10 0 6 14 10 31 10 31 0 32 0 25 -42 -4 -23 -12 -46 -19 -50
-18 -12 -51 -10 -65 4 -13 13 -17 159 -5 171 3 4 21 7 40 7 27 0 35 -5 43 -26z
m173 -41 l32 -68 3 68 c4 102 22 81 22 -28 0 -60 -4 -95 -11 -95 -5 0 -25 33
-44 73 l-34 72 0 -72 c-1 -42 -5 -73 -11 -73 -6 0 -10 38 -10 95 0 60 4 95 11
95 5 0 24 -30 42 -67z m261 51 c9 -24 7 -44 -4 -44 -5 0 -10 9 -10 19 0 23
-19 32 -42 19 -29 -14 -21 -36 22 -63 31 -20 40 -31 40 -53 0 -34 -16 -52 -47
-52 -22 0 -62 45 -50 56 9 9 27 -6 27 -22 0 -8 10 -14 25 -14 20 0 25 5 25 25
0 19 -10 31 -35 46 -39 23 -51 49 -35 79 13 25 75 28 84 4z m288 -66 c3 -81 4
-83 28 -83 24 0 25 2 28 83 4 103 22 109 22 6 0 -90 -10 -114 -48 -114 -44 0
-52 16 -52 107 0 108 18 108 22 1z m358 -3 l0 -85 30 0 c17 0 30 -4 30 -10 0
-5 -18 -10 -40 -10 l-40 0 0 95 c0 57 4 95 10 95 6 0 10 -35 10 -85z m190 -10
c0 -57 -4 -95 -10 -95 -6 0 -10 38 -10 95 0 57 4 95 10 95 6 0 10 -38 10 -95z
m163 53 c33 51 58 57 26 6 l-22 -36 22 -52 c23 -56 25 -66 14 -66 -5 0 -16 20
-27 45 -14 36 -21 43 -32 35 -7 -7 -15 -28 -17 -48 -2 -20 -4 8 -4 63 0 64 2
84 6 56 l6 -45 28 42z m257 32 c0 -5 -16 -10 -35 -10 -32 0 -35 -2 -35 -30 0
-28 3 -30 35 -30 19 0 35 -4 35 -10 0 -5 -16 -10 -35 -10 -33 0 -35 -2 -35
-35 0 -33 2 -35 35 -35 19 0 35 -4 35 -10 0 -5 -20 -10 -45 -10 l-45 0 0 95 0
95 45 0 c25 0 45 -4 45 -10z"/>
<path d="M4383 3120 c-41 -105 -95 -271 -91 -276 3 -2 50 -3 106 -2 l100 3
-53 150 c-47 132 -54 147 -62 125z"/>
<path d="M1135 2725 c-49 -29 -96 -63 -102 -76 -18 -34 -18 -993 0 -1028 18
-36 191 -135 221 -127 29 7 40 31 26 57 -6 10 -47 40 -90 65 l-80 47 0 471 0
472 84 49 c89 51 107 76 79 107 -23 26 -38 22 -138 -37z"/>
<path d="M1529 2751 c-30 -16 -115 -64 -189 -108 -104 -60 -136 -84 -138 -101
-4 -27 14 -52 36 -52 9 0 92 43 184 96 l167 96 65 -37 66 -37 0 -547 c0 -568
0 -571 41 -571 21 0 189 96 207 118 9 12 12 113 12 428 0 362 -2 415 -16 428
-20 20 -38 20 -58 0 -14 -13 -16 -65 -16 -409 l0 -393 -34 -21 c-18 -12 -36
-21 -40 -21 -3 0 -6 228 -6 508 0 430 -2 511 -15 529 -14 19 -155 105 -194
118 -10 3 -41 -7 -72 -24z"/>
<path d="M1396 2476 c-98 -57 -182 -110 -187 -117 -14 -23 -11 -643 3 -657 17
-17 44 -15 62 4 14 13 16 55 16 309 l0 294 66 38 c222 127 269 158 272 181 4
27 -14 52 -37 52 -9 -1 -96 -47 -195 -104z"/>
<path d="M1490 2330 c-47 -27 -93 -59 -102 -71 -16 -19 -18 -53 -18 -376 0
-225 4 -361 10 -374 12 -21 50 -25 68 -7 9 9 12 102 12 359 l0 347 36 21 c19
12 37 21 40 21 2 0 4 -138 4 -308 0 -262 2 -311 16 -330 17 -24 43 -29 62 -10
17 17 17 749 0 766 -20 20 -39 14 -128 -38z"/>
<path d="M2940 1920 l0 -80 129 0 c71 0 141 4 156 10 53 20 63 114 15 140 -10
6 -82 10 -159 10 l-141 0 0 -80z"/>
<path d="M2940 1530 l0 -80 160 0 c157 0 161 1 185 25 27 26 31 51 14 88 -18
40 -49 47 -209 47 l-150 0 0 -80z"/>
<path d="M4217 1808 c-26 -73 -47 -139 -47 -145 0 -10 27 -13 100 -13 55 0
100 4 100 8 0 15 -97 282 -103 282 -2 0 -24 -60 -50 -132z"/>
<path d="M5290 1880 l0 -121 146 3 146 3 30 34 c28 31 30 39 26 88 -4 42 -11
60 -32 81 -26 26 -29 27 -171 30 l-145 3 0 -121z"/>
<path d="M2710 955 c0 -66 2 -75 18 -75 29 0 42 21 42 71 0 63 -7 79 -36 79
-23 0 -24 -3 -24 -75z"/>
</g>
</svg>
